<?xml version="1.0" encoding="utf-8"?>
<!-- Generator: Adobe Illustrator 23.1.0, SVG Export Plug-In . SVG Version: 6.00 Build 0)  -->
<svg version="1.1" id="Warstwa_1" xmlns="http://www.w3.org/2000/svg" xmlns:xlink="http://www.w3.org/1999/xlink" x="0px" y="0px"
	 viewBox="0 0 1920 663.11" style="enable-background:new 0 0 1920 663.11;" xml:space="preserve">
<style type="text/css">
	.st0{fill:#1B7CA0;}
	.st1{fill:#53AEDD;}
	.st2{fill:#1C7CA0;}
</style>
<g>
	<path class="st0" d="M66.19,609.84c-2.97,0-5.2-0.74-6.68-2.23c-1.49-1.49-2.23-3.71-2.23-6.68V483.98H16.11
		c-2.97,0-5.2-0.74-6.69-2.23c-1.49-1.49-2.23-3.71-2.23-6.69c0-2.97,0.74-5.2,2.23-6.69c1.49-1.49,3.71-2.23,6.69-2.23h100.17
		c2.97,0,5.2,0.74,6.68,2.23c1.49,1.49,2.23,3.71,2.23,6.69c0,2.97-0.74,5.2-2.23,6.69c-1.49,1.49-3.71,2.23-6.68,2.23H75.11v116.94
		c0,2.83-0.76,5.02-2.28,6.58C71.31,609.06,69.1,609.84,66.19,609.84z"/>
	<path class="st0" d="M158.09,609.84c-5.94,0-8.91-2.97-8.91-8.91V469.34c0-5.94,2.97-8.91,8.91-8.91c5.94,0,8.91,2.97,8.91,8.91
		v45.31c7.5-8.28,18.53-12.42,33.11-12.42h5.94c14.15,0,24.62,3.4,31.41,10.19c6.79,6.79,10.19,17.26,10.19,31.41v57.09
		c0,5.94-2.97,8.91-8.91,8.91c-5.94,0-8.91-2.97-8.91-8.91v-57.09c0-9.27-1.68-15.55-5.04-18.84c-3.36-3.29-9.6-4.93-18.73-4.93
		h-5.94c-8.49,0-15.88,0.97-22.18,2.92c-6.3,1.95-9.94,5.01-10.93,9.18v68.76C167.01,606.87,164.04,609.84,158.09,609.84z"/>
	<path class="st0" d="M302.41,563.36v5.09c0,9.13,1.66,15.33,4.99,18.62c3.32,3.29,9.59,4.93,18.78,4.93h17.4
		c7.22,0,12.56-0.67,16.02-2.02c3.47-1.34,5.76-3.71,6.9-7.11c0.78-2.69,1.86-4.74,3.24-6.15c1.38-1.41,3.48-2.12,6.31-2.12
		c2.97,0,5.23,0.78,6.79,2.33c1.55,1.56,2.05,3.82,1.49,6.79c-1.56,8.77-5.73,15.32-12.52,19.63c-6.79,4.32-16.2,6.47-28.23,6.47
		h-17.4c-14.08,0-24.53-3.4-31.36-10.19c-6.83-6.79-10.24-17.19-10.24-31.2v-24.62c0-14.36,3.41-24.92,10.24-31.68
		c6.83-6.75,17.28-10.06,31.36-9.92h17.4c14.15,0,24.62,3.38,31.41,10.13c6.79,6.76,10.19,17.24,10.19,31.46v10.61
		c0,5.94-2.97,8.91-8.91,8.91H302.41z M326.18,520.06c-9.2-0.14-15.46,1.45-18.78,4.78c-3.33,3.33-4.99,9.66-4.99,18.99v1.7h64.94
		v-1.7c0-9.27-1.64-15.55-4.93-18.84c-3.29-3.29-9.57-4.93-18.84-4.93H326.18z"/>
	<path class="st0" d="M533.31,609.84c-16.2,0-28.17-3.87-35.92-11.62c-7.75-7.75-11.62-19.72-11.62-35.92v-48.81
		c0-16.34,3.85-28.39,11.57-36.13c7.71-7.75,19.63-11.55,35.76-11.41h25.68c13.3,0,23.45,2.74,30.46,8.22
		c7,5.48,11.07,14.13,12.2,25.95c0.42,2.97-0.14,5.24-1.7,6.79c-1.56,1.56-3.82,2.33-6.79,2.33c-5.38,0-8.49-2.97-9.34-8.91
		c-0.71-6.51-2.95-10.89-6.74-13.16c-3.79-2.26-9.82-3.4-18.09-3.4H533.1c-7.5-0.07-13.39,0.78-17.67,2.55
		c-4.28,1.77-7.32,4.83-9.13,9.18c-1.8,4.35-2.71,10.35-2.71,17.99v48.81c0,7.57,0.9,13.51,2.71,17.83c1.8,4.32,4.86,7.38,9.18,9.18
		c4.31,1.8,10.26,2.71,17.83,2.71h25.47c8.28,0,14.31-1.15,18.09-3.45c3.78-2.3,6.03-6.67,6.74-13.11c0.85-5.94,3.96-8.91,9.34-8.91
		c2.97,0,5.23,0.78,6.79,2.34c1.56,1.56,2.12,3.82,1.7,6.79c-1.13,11.88-5.2,20.55-12.2,26c-7,5.45-17.16,8.17-30.46,8.17H533.31z"
		/>
	<path class="st0" d="M670.63,609.84c-10.82,0-18.87-2.67-24.14-8.01c-5.27-5.34-7.91-13.42-7.91-24.25V469.34
		c0-5.94,2.97-8.91,8.91-8.91c5.94,0,8.91,2.97,8.91,8.91v108.24c0,5.73,0.94,9.57,2.81,11.51c1.87,1.95,5.68,2.92,11.41,2.92
		c6.08,0,9.13,2.97,9.13,8.91C679.97,606.87,676.92,609.84,670.63,609.84z"/>
	<path class="st0" d="M743.63,609.84c-14.08,0-24.53-3.4-31.36-10.19c-6.83-6.79-10.24-17.19-10.24-31.2v-24.62
		c0-14.22,3.41-24.71,10.24-31.46c6.83-6.75,17.28-10.13,31.36-10.13h17.4c14.15,0,24.62,3.4,31.41,10.19
		c6.79,6.79,10.19,17.26,10.19,31.41v24.41c0,14.08-3.4,24.53-10.19,31.36c-6.79,6.83-17.26,10.24-31.41,10.24H743.63z
		 M719.86,568.45c0,9.13,1.66,15.33,4.99,18.62c3.32,3.29,9.58,4.93,18.78,4.93h17.4c9.27,0,15.55-1.66,18.84-4.99
		c3.29-3.32,4.93-9.58,4.93-18.78v-24.41c0-9.27-1.64-15.55-4.93-18.84c-3.29-3.29-9.57-4.93-18.84-4.93h-17.4
		c-6.15,0-10.95,0.69-14.38,2.07c-3.43,1.38-5.85,3.79-7.27,7.22c-1.42,3.43-2.12,8.26-2.12,14.48V568.45z"/>
	<path class="st0" d="M929.12,502.24c5.94,0,8.91,2.97,8.91,8.91v89.77c0,5.94-2.97,8.91-8.91,8.91c-5.94,0-8.91-2.97-8.91-8.91
		v-3.5c-7.5,8.28-18.54,12.42-33.11,12.42h-5.94c-14.15,0-24.62-3.4-31.41-10.19c-6.79-6.79-10.19-17.26-10.19-31.41v-57.09
		c0-5.94,2.97-8.91,8.91-8.91c5.94,0,8.91,2.97,8.91,8.91v57.09c0,9.27,1.68,15.55,5.04,18.84c3.36,3.29,9.6,4.93,18.73,4.93h5.94
		c8.49,0,15.88-0.97,22.18-2.92c6.3-1.95,9.94-5,10.93-9.18v-68.76C920.21,505.21,923.18,502.24,929.12,502.24z"/>
	<path class="st0" d="M1018.68,609.84c-14.08,0-24.53-3.41-31.36-10.24c-6.83-6.83-10.24-17.28-10.24-31.36v-24.41
		c0-14.15,3.41-24.62,10.24-31.41c6.83-6.79,17.28-10.19,31.36-10.19h41.17v-32.9c0-5.94,2.97-8.91,8.91-8.91
		c5.94,0,8.91,2.97,8.91,8.91v131.58c0,5.94-2.97,8.91-8.91,8.91c-5.94,0-8.91-2.97-8.91-8.91v-1.49c-3.33,3.4-7.68,5.98-13.05,7.75
		c-5.38,1.77-12.06,2.65-20.06,2.65H1018.68z M1018.68,592.01h8.07c9.34,0,17.19-1.2,23.56-3.61c6.37-2.4,9.55-6.08,9.55-11.04
		v-57.3h-41.17c-9.2,0-15.46,1.68-18.78,5.04c-3.33,3.36-4.99,9.6-4.99,18.73v24.41c0,9.2,1.68,15.46,5.04,18.78
		C1003.31,590.35,1009.56,592.01,1018.68,592.01z"/>
	<path class="st0" d="M1229.43,609.84c-2.97,0-5.2-0.74-6.68-2.23c-1.49-1.49-2.23-3.71-2.23-6.68V483.98h-41.17
		c-2.97,0-5.2-0.74-6.68-2.23c-1.49-1.49-2.23-3.71-2.23-6.69c0-2.97,0.74-5.2,2.23-6.69c1.49-1.49,3.71-2.23,6.68-2.23h100.17
		c2.97,0,5.2,0.74,6.69,2.23c1.49,1.49,2.23,3.71,2.23,6.69c0,2.97-0.74,5.2-2.23,6.69c-1.49,1.49-3.71,2.23-6.69,2.23h-41.17
		v116.94c0,2.83-0.76,5.02-2.28,6.58C1234.54,609.06,1232.33,609.84,1229.43,609.84z"/>
	<path class="st0" d="M1321.33,609.84c-5.94,0-8.91-2.97-8.91-8.91V469.34c0-5.94,2.97-8.91,8.91-8.91c5.94,0,8.91,2.97,8.91,8.91
		v45.31c7.5-8.28,18.53-12.42,33.11-12.42h5.94c14.15,0,24.62,3.4,31.41,10.19c6.79,6.79,10.19,17.26,10.19,31.41v57.09
		c0,5.94-2.97,8.91-8.91,8.91c-5.94,0-8.91-2.97-8.91-8.91v-57.09c0-9.27-1.68-15.55-5.04-18.84c-3.36-3.29-9.6-4.93-18.73-4.93
		h-5.94c-8.49,0-15.88,0.97-22.18,2.92c-6.3,1.95-9.94,5.01-10.93,9.18v68.76C1330.24,606.87,1327.27,609.84,1321.33,609.84z"/>
	<path class="st0" d="M1465.64,563.36v5.09c0,9.13,1.66,15.33,4.99,18.62c3.32,3.29,9.58,4.93,18.78,4.93h17.4
		c7.22,0,12.56-0.67,16.02-2.02c3.47-1.34,5.77-3.71,6.9-7.11c0.78-2.69,1.86-4.74,3.24-6.15c1.38-1.41,3.48-2.12,6.31-2.12
		c2.97,0,5.23,0.78,6.79,2.33c1.56,1.56,2.05,3.82,1.49,6.79c-1.56,8.77-5.73,15.32-12.52,19.63c-6.79,4.32-16.2,6.47-28.23,6.47
		h-17.4c-14.08,0-24.53-3.4-31.36-10.19c-6.83-6.79-10.24-17.19-10.24-31.2v-24.62c0-14.36,3.41-24.92,10.24-31.68
		c6.83-6.75,17.28-10.06,31.36-9.92h17.4c14.15,0,24.62,3.38,31.41,10.13c6.79,6.76,10.19,17.24,10.19,31.46v10.61
		c0,5.94-2.97,8.91-8.91,8.91H1465.64z M1489.41,520.06c-9.2-0.14-15.46,1.45-18.78,4.78c-3.33,3.33-4.99,9.66-4.99,18.99v1.7h64.94
		v-1.7c0-9.27-1.64-15.55-4.93-18.84c-3.29-3.29-9.57-4.93-18.84-4.93H1489.41z"/>
	<path class="st0" d="M1623.96,609.84c-14.08,0-24.53-3.4-31.36-10.19c-6.83-6.79-10.24-17.19-10.24-31.2v-24.62
		c0-14.22,3.41-24.71,10.24-31.46c6.83-6.75,17.28-10.13,31.36-10.13h17.4c14.15,0,24.62,3.4,31.41,10.19
		c6.79,6.79,10.19,17.26,10.19,31.41v24.41c0,14.08-3.4,24.53-10.19,31.36c-6.79,6.83-17.26,10.24-31.41,10.24H1623.96z
		 M1600.19,568.45c0,9.13,1.66,15.33,4.99,18.62c3.32,3.29,9.58,4.93,18.78,4.93h17.4c9.27,0,15.55-1.66,18.84-4.99
		c3.29-3.32,4.93-9.58,4.93-18.78v-24.41c0-9.27-1.64-15.55-4.93-18.84c-3.29-3.29-9.57-4.93-18.84-4.93h-17.4
		c-6.15,0-10.95,0.69-14.38,2.07c-3.43,1.38-5.85,3.79-7.27,7.22c-1.42,3.43-2.12,8.26-2.12,14.48V568.45z"/>
	<path class="st0" d="M1730.93,609.84c-5.94,0-8.91-2.97-8.91-8.91v-89.77c0-5.94,2.97-8.91,8.91-8.91c5.94,0,8.91,2.97,8.91,8.91
		v8.28c4.17-5.66,9.5-9.94,15.97-12.84c6.47-2.9,13.88-4.35,22.23-4.35c5.94,0,8.91,2.97,8.91,8.91c0,5.94-2.97,8.91-8.91,8.91
		c-12.24,0-21.58,2.26-28.01,6.79c-6.44,4.53-9.83,10.51-10.19,17.93v56.14C1739.84,606.87,1736.87,609.84,1730.93,609.84z"/>
	<path class="st0" d="M1841.07,652.28c-10.26,0-17.92-2.57-22.97-7.69c-5.06-5.13-7.59-12.82-7.59-23.08c0-5.94,2.97-8.91,8.91-8.91
		c5.94,0,8.91,2.97,8.91,8.91c0,5.31,0.8,8.79,2.39,10.45c1.59,1.66,5.04,2.49,10.35,2.49h41.17c5.23,0,8.66-0.83,10.29-2.49
		c1.63-1.66,2.44-5.15,2.44-10.45v-26.95c-4.24,6.37-9.18,10.51-14.8,12.42c-5.62,1.91-11.73,2.87-18.3,2.87h-10.4
		c-14.01,0-24.34-3.32-30.99-9.97c-6.65-6.65-9.97-16.91-9.97-30.77v-57.94c0-5.94,2.97-8.91,8.91-8.91c5.94,0,8.91,2.97,8.91,8.91
		v57.94c0,8.91,1.61,14.96,4.83,18.15c3.22,3.18,9.32,4.77,18.3,4.77h10.4c11.6,0,20.02-1.89,25.26-5.68
		c5.23-3.78,7.85-9.53,7.85-17.24v-57.94c0-5.94,2.97-8.91,8.91-8.91c5.94,0,8.91,2.97,8.91,8.91v110.36
		c0,10.26-2.55,17.95-7.64,23.08c-5.09,5.13-12.73,7.69-22.92,7.69H1841.07z"/>
</g>
<g>
	<polygon class="st1" points="834.48,310.55 834.48,60.7 1010.45,60.7 1059.73,11.1 834.48,11.1 785.36,11.1 785.36,60.7 
		785.36,310.55 785.36,360.15 834.48,360.15 1059.73,360.15 1010.61,310.55 	"/>
	<polygon class="st1" points="889.08,210.59 938.35,260.19 1085.52,260.19 1085.52,310.35 1134.64,359.93 1134.64,260.19 
		1134.64,210.59 1085.52,210.59 	"/>
	<polygon class="st1" points="1085.52,60.86 1085.52,111.39 938.35,111.39 889.08,160.99 1085.52,160.99 1134.64,160.99 
		1134.64,111.39 1134.64,11.1 	"/>
	<rect x="785.36" y="11.1" class="st2" width="49.11" height="49.6"/>
	<rect x="785.36" y="310.55" class="st2" width="49.11" height="49.6"/>
	<rect x="1085.52" y="111.39" class="st2" width="49.11" height="49.6"/>
	<rect x="1085.52" y="210.59" class="st2" width="49.11" height="49.6"/>
</g>
</svg>
